{"title":"Unstoppable.2010.BDRip.XVID.AC3.HQ.Hive-CM8","uid":6125923,"size":1976468572,"categoryP":"video","categoryS":"movies","magnet":"?xt=urn:btih:cd5fe0fb793d5f106514745685dcc24bf8e1220c&amp;dn=Unstoppable.2010.BDRip.XVID.AC3.HQ.Hive-CM8&amp;tr=udp%3A%2F%2Ftracker.openbittorrent.com%3A80&amp;tr=udp%3A%2F%2Fopen.demonii.com%3A1337&amp;tr=udp%3A%2F%2Ftracker.coppersurfer.tk%3A6969&amp;tr=udp%3A%2F%2Fexodus.desync.com%3A6969","seeders":0,"leechers":0,"uploader":"TvTeam","files":6,"time":1295941125,"description":". \n  &lt;a href=&quot;\nhttp://www.torrentday.com/&quot; rel=&quot;nofollow&quot; target=&quot;_NEW&quot;&gt;\nhttp://www.torrentday.com/&lt;/a&gt;        :     The Hottest Private Tracker On The Net!!!\n &lt;a href=&quot;\nhttp://www.torrentday.com&quot; rel=&quot;nofollow&quot; target=&quot;_NEW&quot;&gt;\nhttp://www.torrentday.com&lt;/a&gt;          :     Once &amp; For all ;)\n\n\n               www . TorrentDay . Com \n\n(((((((((((((= Enjoy No RAR releases =))))))))))))))))))))\n\n\n...................................NFO:....................................\n\n.[img]http://img443.imageshack.us/img443/2066/unst.jpg[/img]\n\nUnstoppable.2010.BDRip.XVID.AC3.HQ.Hive-CM8\n\n\n\n\n[b]Thx Hive\n\nCM8 Doing It Right The First Time :D\n\nWhy download a touched up rip of a rip BRrip\nGet the real deal BDRip\nEnjoy\n\n\nSource Chinese Bluray\n\nVideo: 720x304 @bitrate 2200 2pass\nAudio: DTS to AC3 5.1 @448\nSample: yes included\nSubs: yes in srt /subs[/b]\n\n\n[url]http://www.imdb.com/title/tt0477080/[/url]\n\n\nGeneral\nComplete name                    : Unstoppable.2010.BDRip.XVID.AC3.HQ.Hive-CM8.avi\nFormat                           : AVI\nFormat/Info                      : Audio Video Interleave\nFile size                        : 1.83 GiB\nDuration                         : 1h 38mn\nOverall bit rate                 : 2 657 Kbps\nWriting application              : Nandub v1.0rc2\nWriting library                  : Nandub build 1853/release\n\nVideo\nID                               : 0\nFormat                           : MPEG-4 Visual\nFormat profile                   : Advanced Simple@L5\nFormat settings, BVOP            : Yes\nFormat settings, QPel            : Yes\nFormat settings, GMC             : No warppoints\nFormat settings, Matrix          : Default (H.263)\nMuxing mode                      : Packed bitstream\nCodec ID                         : XVID\nCodec ID/Hint                    : XviD\nDuration                         : 1h 38mn\nBit rate                         : 2 199 Kbps\nWidth                            : 720 pixels\nHeight                           : 304 pixels\nDisplay aspect ratio             : 2.40:1\nFrame rate                       : 23.976 fps\nColor space                      : YUV\nChroma subsampling               : 4:2:0\nBit depth                        : 8 bits\nScan type                        : Progressive\nBits/(Pixel*Frame)               : 0.419\nStream size                      : 1.51 GiB (83%)\nWriting library                  : XviD 1.2.1 (UTC 2008-12-04)\n\nAudio\nID                               : 1\nFormat                           : AC-3\nFormat/Info                      : Audio Coding 3\nMode extension                   : CM (complete main)\nCodec ID                         : 2000\nDuration                         : 1h 38mn\nBit rate mode                    : Constant\nBit rate                         : 448 Kbps\nChannel(s)                       : 6 channels\nChannel positions                : Front: L C R, Side: L R, LFE\nSampling rate                    : 48.0 KHz\nBit depth                        : 16 bits\nStream size                      : 316 MiB (17%)\nAlignment                        : Split accross interleaves\nInterleave, duration             : 42 ms (1.00 video frame)\nInterleave, preload duration     : 500 ms\n\n\n\nDenzel Washington ... Frank\nChris Pine ... Will\nRosario Dawson ... Connie\nEthan Suplee ... Dewey\nKevin Dunn ... Galvin\nKevin Corrigan ... Inspector Werner\nKevin Chapman ... Bunny\nLew Temple ... Ned\nT.J. Miller ... Gilleece\nJessy Schram ... Darcy Colson\nDavid Warshofsky ... Judd Stewart\nAndy Umberger ... Janeway\nElizabeth Mathis ... Nicole\nMeagan Tandy ... Maya\n\n\n\nWith an unmanned, half-mile-long freight train barreling toward a city, \na veteran engineer and a young conductor race against the clock to prevent a catastrophe. \n\n\n\n\n[img]http://img52.imageshack.us/img52/9799/uuununnnunun.png[/img]\n[img]http://img407.imageshack.us/img407/8002/uuunununnnunun.png[/img]\n[img]http://img403.imageshack.us/img403/6701/uuunununnnununun.png[/img]\n[img]http://img163.imageshack.us/img163/3981/uuununuunnnnununun.png[/img]\n[img]http://img217.imageshack.us/img217/7820/uuununuununnnnununun.png[/img]\n[img]http://img132.imageshack.us/img132/4664/uuununuunuunnnnnununun.png[/img]\n[img]http://img24.imageshack.us/img24/9169/uuununuunuunnnunnnununu.png[/img]\n\n\n\n\nlabel:\n\n[img]http://img132.imageshack.us/img132/3253/unstoppable2010cdcover4.jpg[/img]\n\n\n\nGreetz\n\niNK,LUSi,,MAGNET,CLASSiFiED,THC,LEGi0N,IMAGiNE,ViSiON,WBZ,FLAWL3SS,NOVA\nRapeseed,D2U,SAFC,goldadvance,MEMORY100,KaN1vE,Unevano,Pinnz,Wayne,Mr Hive\nand all P2P groups \nGreat Work Guys :D","torrent":{"xt":"urn:btih:cd5fe0fb793d5f106514745685dcc24bf8e1220c","amp;dn":"Unstoppable.2010.BDRip.XVID.AC3.HQ.Hive-CM8","amp;tr":["udp%3A%2F%2Ftracker.openbittorrent.com%3A80","udp%3A%2F%2Fopen.demonii.com%3A1337","udp%3A%2F%2Ftracker.coppersurfer.tk%3A6969","udp%3A%2F%2Fexodus.desync.com%3A6969"],"infoHash":"cd5fe0fb793d5f106514745685dcc24bf8e1220c","infoHashBuffer":{"type":"Buffer","data":[205,95,224,251,121,61,95,16,101,20,116,86,133,220,194,75,248,225,34,12]},"announce":[],"urlList":[]}}